<?xml version="1.0" encoding="UTF-8" standalone="no"?>
<svg
   width="35mm"
   height="35mm"
   version="1.1"
   viewBox="0 0 35.000002 35"
   id="svg19"
   sodipodi:docname="webviz-logo.svg"
   inkscape:version="1.4 (e7c3feb1, 2024-10-09)"
   xmlns:inkscape="http://www.inkscape.org/namespaces/inkscape"
   xmlns:sodipodi="http://sodipodi.sourceforge.net/DTD/sodipodi-0.dtd"
   xmlns:xlink="http://www.w3.org/1999/xlink"
   xmlns="http://www.w3.org/2000/svg"
   xmlns:svg="http://www.w3.org/2000/svg"
   xmlns:rdf="http://www.w3.org/1999/02/22-rdf-syntax-ns#"
   xmlns:cc="http://creativecommons.org/ns#"
   xmlns:dc="http://purl.org/dc/elements/1.1/">
  <sodipodi:namedview
     id="namedview19"
     pagecolor="#505050"
     bordercolor="#eeeeee"
     borderopacity="1"
     inkscape:showpageshadow="0"
     inkscape:pageopacity="0"
     inkscape:pagecheckerboard="0"
     inkscape:deskcolor="#505050"
     inkscape:document-units="mm"
     inkscape:zoom="1.2484131"
     inkscape:cx="44.456437"
     inkscape:cy="196.24914"
     inkscape:window-width="1512"
     inkscape:window-height="921"
     inkscape:window-x="0"
     inkscape:window-y="33"
     inkscape:window-maximized="0"
     inkscape:current-layer="svg19" />
  <defs
     id="defs4">
    <linearGradient
       id="t"
       x1="-160.85001"
       x2="-149.3"
       y1="122.05"
       y2="97.969002"
       gradientTransform="matrix(-0.32092845,-0.15539504,-0.12406466,0.40195981,-26.985905,-37.072471)"
       gradientUnits="userSpaceOnUse"
       xlink:href="#b" />
    <linearGradient
       id="b">
      <stop
         stop-color="#387eb8"
         offset="0"
         id="stop1" />
      <stop
         stop-color="#366994"
         offset="1"
         id="stop2" />
    </linearGradient>
    <linearGradient
       id="o"
       x1="-169.75"
       x2="-132.82001"
       y1="78.613998"
       y2="80.514"
       gradientTransform="matrix(-0.15821058,-0.3465293,-0.30553473,0.17944033,11.252117,-50.666059)"
       gradientUnits="userSpaceOnUse"
       xlink:href="#a" />
    <linearGradient
       id="a">
      <stop
         stop-color="#ffe052"
         offset="0"
         id="stop3" />
      <stop
         stop-color="#ffc331"
         offset="1"
         id="stop4" />
    </linearGradient>
    <linearGradient
       id="q"
       x1="-169.75"
       x2="-132.82001"
       y1="78.613998"
       y2="80.514"
       gradientTransform="matrix(-0.08389142,-0.41794392,0.33368326,-0.10507697,-18.764774,-46.094105)"
       gradientUnits="userSpaceOnUse"
       xlink:href="#a" />
    <linearGradient
       id="p"
       x1="-152"
       x2="-132.82001"
       y1="77.863998"
       y2="80.514"
       gradientTransform="matrix(0.08389142,-0.41794392,-0.33368326,-0.10507697,54.0027,-43.85243)"
       gradientUnits="userSpaceOnUse"
       xlink:href="#b" />
    <linearGradient
       id="r"
       x1="-165.41"
       x2="-142.27"
       y1="69.834999"
       y2="106.3"
       gradientTransform="matrix(0.15821058,-0.3465293,0.30553473,0.17944033,23.741269,-50.749346)"
       gradientUnits="userSpaceOnUse"
       xlink:href="#b" />
    <linearGradient
       id="s"
       x1="-167.98"
       x2="-140.73"
       y1="54.32"
       y2="108.56"
       gradientTransform="matrix(0.32092845,-0.15539504,0.12406466,0.40195981,63.406069,-33.560217)"
       gradientUnits="userSpaceOnUse"
       xlink:href="#a" />
    <linearGradient
       id="m"
       x1="11.18"
       x2="76.208"
       y1="-2124.2"
       y2="-2131.7"
       gradientTransform="matrix(0.22543456,0,0,0.17647387,16.410336,394.00076)"
       gradientUnits="userSpaceOnUse"
       xlink:href="#b" />
    <linearGradient
       id="l"
       x1="11.95"
       x2="-2.3081999"
       y1="-2137.6001"
       y2="-2226.8"
       gradientTransform="matrix(0.17592833,0,0,0.17720751,19.487322,395.54247)"
       gradientUnits="userSpaceOnUse"
       xlink:href="#a" />
    <linearGradient
       id="n"
       x1="12.139"
       x2="0.79947001"
       y1="-2139.8"
       y2="-2229.3999"
       gradientTransform="matrix(0.17592833,0,0,0.17720751,19.487322,395.54247)"
       gradientUnits="userSpaceOnUse"
       xlink:href="#a" />
  </defs>
  <metadata
     id="metadata4">
    <rdf:RDF>
      <cc:Work
         rdf:about="">
        <dc:format>image/svg+xml</dc:format>
        <dc:type
           rdf:resource="http://purl.org/dc/dcmitype/StillImage" />
      </cc:Work>
    </rdf:RDF>
  </metadata>
  <g
     id="g19">
    <path
       d="m 4.4665614,28.718478 c 1.34707,2.539392 4.5790223,3.122443 7.1474336,2.399049 4.513448,-1.216566 8.520652,-4.027472 11.605227,-7.495906 -0.19998,-1.36846 -2.73066,-2.023011 -3.962669,-1.107202 -1.479203,0.9086 -2.486622,2.423831 -4.078723,3.192222 -2.213791,1.353346 -5.5596809,1.896145 -7.4898453,-0.222696 -2.0145501,-2.352474 -1.1211576,-5.702205 -0.026956,-8.258254 1.4109115,-3.323883 3.4904136,-6.31467 5.9531746,-8.9434897 0.479435,-0.6238322 1.936848,-1.7482739 0.28261,-1.395982 -1.580721,0.7529783 -2.684224,2.6583658 -3.9798228,3.9543687 -2.9302233,3.568047 -5.8485191,7.489215 -6.6828189,12.136569 -0.3257707,1.979416 0.00975,4.112785 1.2323901,5.741321 z"
       fill="url(#t)"
       id="path4"
       style="fill:url(#t);stroke-width:0.176567" />
    <path
       d="m 0.01733399,17.593567 c -0.31267506,3.510143 2.51448461,6.302883 5.40833561,7.784212 4.0723465,2.07653 8.7466244,3.186468 13.3191354,2.780026 1.571935,-0.681521 1.248661,-3.13268 2.976631,-3.875894 C 16.869532,23.420303 11.624007,23.841078 7.1670391,21.432652 4.858942,20.260056 3.5587763,17.095858 5.109594,14.83025 7.0827522,12.179823 10.530776,11.401938 13.596765,10.777525 15.880286,10.32684 18.214802,10.23365 20.505947,9.8267922 16.417076,8.8652795 12.090302,9.2467184 8.0499491,10.279121 4.7865637,11.18668 1.137159,12.95182 0.19204827,16.494824 0.10127987,16.854918 0.04366055,17.223203 0.01733399,17.593567 Z"
       fill="url(#o)"
       id="path5"
       style="fill:url(#o);stroke-width:0.176567" />
    <path
       d="m 29.520514,1.0519545 c 2.608823,2.4469822 2.338374,6.4119798 1.372123,9.5534795 -1.711138,5.358312 -4.849807,10.220968 -8.722124,14.272211 -1.307185,1.818156 -2.75265,-0.806562 -4.383349,-0.355246 -1.335787,0.237223 0.750693,-1.569343 0.997857,-2.210746 2.992909,-4.098899 6.613678,-8.054707 7.865958,-13.1024644 0.522331,-2.2010511 0.04172,-5.1912246 -2.282116,-6.1513316 -2.530377,-0.7708689 -4.968984,0.8010583 -7.149569,1.8913201 -1.196386,0.6382707 -2.863468,2.6650778 -3.8056,2.0569355 3.121925,-2.8326937 6.709135,-5.3046267 10.744244,-6.61745966 1.752045,-0.51519282 3.933797,-0.70994598 5.362576,0.66330156 z"
       fill="url(#q)"
       id="path6"
       style="fill:url(#q);stroke-width:0.176567" />
    <path
       d="M 5.7174115,3.2918575 C 3.3916352,6.209316 3.9961545,10.25866 5.012009,13.573702 c 1.6856998,5.097572 4.4756138,9.879863 8.237696,13.72271 1.409481,1.508641 2.806586,-1.207921 4.498867,-0.508541 C 18.215271,26.448084 16.47622,24.804114 16.03781,24.000552 13.160991,20.097535 9.7708035,16.269839 8.5869478,11.449092 8.0327643,9.1740875 8.6026981,5.9976511 11.145795,5.2301057 13.889521,4.7248141 16.386435,6.4460776 18.543868,7.9137365 21.07103,9.6866342 23.21312,11.923068 25.601535,13.866362 23.183261,9.8145409 19.719189,6.4143029 15.819341,3.7829581 13.363786,2.2357284 10.223827,0.68738834 7.3421606,1.9840622 6.7122344,2.2930027 6.1630704,2.7524284 5.7174115,3.2918575 Z"
       fill="url(#p)"
       id="path7"
       style="fill:url(#p);stroke-width:0.176567" />
    <path
       d="m 34.976052,17.509925 c 0.295897,3.436386 -2.558468,6.096244 -5.290555,7.667026 -3.305592,1.86179 -7.098644,3.041736 -10.917546,2.918288 -0.999295,-1.057813 -3.822034,-1.546159 -2.436613,-3.248433 -0.543436,-0.320819 -1.542515,-0.46353 -0.522894,-1.234209 4.161419,0.06699 8.642416,0.157366 12.374777,-1.957926 2.360911,-1.291192 3.67329,-4.725386 1.845045,-6.977364 -2.173465,-2.519022 -5.591445,-3.418305 -8.745083,-3.977669 -1.743521,-0.213481 -3.504157,-0.178555 -5.254123,-0.292739 -0.620994,-0.6739735 -1.263023,-1.3837406 0.145125,-1.1242185 5.080983,0.093273 10.361366,0.6878893 14.918216,3.0986175 1.923511,1.06149 3.706907,2.823951 3.883651,5.128627 z"
       fill="url(#r)"
       id="path8"
       style="fill:url(#r);stroke-width:0.176567" />
    <path
       d="m 31.953603,32.230199 c -1.297723,2.458771 -4.387351,3.204034 -6.931068,2.573844 -4.472517,-1.025837 -8.432245,-3.806653 -11.393627,-7.256021 0.365159,-1.841631 0.664554,-3.69958 0.853675,-5.56786 2.642022,3.167275 5.509252,6.502092 9.465932,8.000421 2.1873,0.897164 5.015755,-0.188604 5.691163,-2.546549 0.928302,-3.206193 -0.656069,-6.42504 -2.118268,-9.206982 -1.843285,-3.604026 -4.863947,-6.378699 -7.609679,-9.2835154 2.103556,-0.2572924 3.331538,1.2786364 4.577985,2.7471904 3.738844,4.158257 7.325631,8.948881 8.123172,14.635777 0.253277,1.983593 0.05088,4.031491 -0.659285,5.903695 z"
       fill="url(#s)"
       id="path9"
       style="fill:url(#s);stroke-width:0.176567" />
    <path
       d="m 28.797449,21.225258 c 0.938548,-0.490451 1.537816,-2.700402 2.031345,-0.738626 0.790551,1.454527 2.029629,3.300943 -0.16528,4.015704 -1.515889,1.511755 -0.820864,-1.854226 -1.659219,-2.711355 l -0.100543,-0.275788 -0.10632,-0.289882 z"
       fill="url(#m)"
       id="path15"
       style="fill:url(#m);stroke-width:0.176567" />
    <path
       d="m 24.627948,14.082377 c 0.465605,-1.286607 1.013348,-1.576598 1.823706,-0.334578 1.380259,0.978979 2.511667,3.61277 0.836446,4.094267 -0.834506,-1.288624 -1.731035,-2.537974 -2.660152,-3.759689 z"
       fill="url(#l)"
       id="path16"
       style="fill:url(#l);stroke-width:0.176567" />
    <path
       d="m 26.376675,10.3775 c -0.11312,0.535509 -0.566669,1.195243 -0.479954,1.657831 1.201785,0.708841 2.403571,1.417683 3.605356,2.126524 0.321398,-0.747934 0.642795,-1.495867 0.964193,-2.243801 -1.363198,-0.513518 -2.726397,-1.027036 -4.089595,-1.540554 z"
       fill="url(#n)"
       id="path17"
       style="fill:url(#n);stroke-width:0.176567" />
  </g>
</svg>
